# xmcd CD database file
#
# Track frame offsets:
#	150
#	15811
#	18651
#	38298
#	59053
#	70200
#
# Disc length: 1171 seconds
#
# Revision: 1
# Processed by: cddbd v1.5.2PL0 Copyright (c) Steve Scherf et al.
# Submitted via: CDex 1.40PlusFr
#
DISCID=41049106
DTITLE=Girbig - Songs from a Pandora Box
DYEAR=2008
DGENRE=Rock
TTITLE0=Daddy it's on me
TTITLE1=July March
TTITLE2=Tomorrow Brings a New Way
TTITLE3=Roll Back The Years
TTITLE4=Goin' With The Circus
TTITLE5=The Whistle Of The Brain
EXTD=YEAR: 2008 ID3G: 17
EXTT0=
EXTT1=
EXTT2=
EXTT3=
EXTT4=
EXTT5=
PLAYORDER=
